<svg id="Layer_1" data-name="Layer 1" xmlns="http://www.w3.org/2000/svg" viewBox="0 0 324.25 273.02"><defs><style>.cls-1{fill:#eaeaea;}.cls-2{fill:#0f0f0f;}.cls-3{fill:#b91a00;}</style></defs><rect class="cls-1" x="58.59" y="37.26" width="254.86" height="235.77" rx="38.66"/><path class="cls-2" d="M9.39,74.9c-3.27,0-5.68-1-7.21-3.07A11.41,11.41,0,0,1-.13,64.77,11,11,0,0,1,2.18,58c1.53-2,3.94-3.07,7.21-3.07H217.27a10.41,10.41,0,0,1,6.91,2.77,8.56,8.56,0,0,1,3.22,6.75l-.61,5.84A71.72,71.72,0,0,1,238.15,58l.92-.61v-.31a10.68,10.68,0,0,1,6.14-2.15H257.8l2.15.31q6.14.31,8.29,7.06,5.22,20.58,8.6,42.38.62-15.36.61-30.71c0-20.27,1-21.09-1.21-41.36V31.39a7,7,0,0,1,2.61-6,9.56,9.56,0,0,1,6-2,12.85,12.85,0,0,1,7.37,2.3,9.47,9.47,0,0,1,4,6.91c1.63,14.13.49,8.61.91,22.32H314.3c3.27,0,5.73,1,7.37,3.07a10.57,10.57,0,0,1,2.46,6.76,11,11,0,0,1-2.46,7.06q-2.46,3.08-7.37,3.07H297.41q0,25.5-1.53,51t-3.69,51c-2.66,33-3.29,35.74-3.91,68.49q0,4.91-3.07,7.22a11,11,0,0,1-6.75,2.3,11.18,11.18,0,0,1-6.91-2.46,8.35,8.35,0,0,1-3.23-7.06c0-33.16-1.92-36.66-3.76-70.64a597.41,597.41,0,0,0-13.82-99.8H249.2a85.87,85.87,0,0,0-20.26,37.77,247.22,247.22,0,0,0-6.76,52.51q0,35.31,3.07,70.93v1.23a7.89,7.89,0,0,1-2.15,5.83,8.37,8.37,0,0,1-5.21,2.46l-3.69.3h-1.54q-11.67-2.44-23.33-11.36a75,75,0,0,1-19-21.18q-13.81,19.34-39.3,25.17a76.21,76.21,0,0,1-15.05,1.54,78.08,78.08,0,0,1-38.53-10,95.73,95.73,0,0,1-30.56-26.87,111.11,111.11,0,0,1-17.65-34.7,130.32,130.32,0,0,1-5.68-38.07,137.08,137.08,0,0,1,3.37-30.09,9.51,9.51,0,0,1,3.38-5.53A8.55,8.55,0,0,1,35.49,93,12,12,0,0,1,43,95.78a9.2,9.2,0,0,1,3.54,7.68l-.31,2.15a117.28,117.28,0,0,0-2.76,25.18,109.63,109.63,0,0,0,6.29,36.84,85.28,85.28,0,0,0,19.81,31.63q21.18,21.19,47.28,21.19,17.19,0,32.24-12.9a55.82,55.82,0,0,0,14.44-21.8,75.36,75.36,0,0,0,4.6-26.1,78.06,78.06,0,0,0-9.21-36.85,95.09,95.09,0,0,0-6.14-9.82,18.42,18.42,0,0,0-8.91-7.07l-3.07-.61a10.31,10.31,0,0,0-8,3.84,30.31,30.31,0,0,0-5.22,8.14,91.76,91.76,0,0,0-8.29,38.07,112.13,112.13,0,0,0,.92,14.43v1.54a10.07,10.07,0,0,1-3.53,8,11.31,11.31,0,0,1-7.52,3.07,7.9,7.9,0,0,1-5.07-1.84A9.82,9.82,0,0,1,100.9,175a61,61,0,0,0-8-23.33,10.74,10.74,0,0,1-1.53-5.22A8.62,8.62,0,0,1,94.29,140a11,11,0,0,1,6.91-3.07A104.32,104.32,0,0,1,108,112.36,53.5,53.5,0,0,1,120.7,93.48a28,28,0,0,1,20.11-8.14l5.53.62A36.22,36.22,0,0,1,166,98.08a86.41,86.41,0,0,1,12.9,20.12,100.78,100.78,0,0,1,8.9,41.45l-.3,8a102.69,102.69,0,0,1-3.38,17.81,37.11,37.11,0,0,0-.62,5.53q0,8,6.15,16a55.16,55.16,0,0,0,14.43,13.2l-.31-6.75-.31-1.54q-1.23-22.41-1.23-45.44,0-45.75,4.3-91.51Z" transform="translate(0.13 12.68)"/><path class="cls-3" d="M142.79-9.68a1.5,1.5,0,0,0,0-3,1.5,1.5,0,0,0,0,3Z" transform="translate(0.13 12.68)"/></svg>