<?xml version="1.0" encoding="utf-8"?>
<!-- Generator: Adobe Illustrator 26.0.0, SVG Export Plug-In . SVG Version: 6.00 Build 0)  -->
<svg version="1.1" id="Layer_1" xmlns="http://www.w3.org/2000/svg" xmlns:xlink="http://www.w3.org/1999/xlink" x="0px" y="0px"
	 viewBox="0 0 1869 321" style="enable-background:new 0 0 1869 321;" xml:space="preserve">
<style type="text/css">
	.st0{fill:#E1E1E1;}
</style>
<g>
	<path class="st0" d="M441.23,139.35c-8.45-10.18-17.76-15.27-27.94-15.27c-7.88,0-15.27,3.74-22.18,11.23
		c-7.88,10.18-12.67,21.89-14.4,35.14c-2.3,0.19-4.37,1.15-6.19,2.88c-1.83,1.73-2.74,3.74-2.74,6.05c0,1.54,0.48,3.17,1.44,4.9
		c3.84,6.34,6.43,13.35,7.78,21.03c0.77,4.42,3.26,6.62,7.49,6.62c2.49,0,4.85-0.91,7.06-2.74c2.21-1.82,3.31-4.27,3.31-7.34v-1.44
		c-0.58-4.41-0.86-9.12-0.86-14.11c0-18.05,4.13-31.4,12.39-40.04c2.69-2.49,5.28-3.74,7.78-3.74c3.84,0,7.39,2.02,10.66,6.05
		c3.26,4.03,6,8.5,8.21,13.39c2.21,4.9,3.7,8.88,4.46,11.95c1.73,7.49,2.59,15.17,2.59,23.04c0,5.76-0.29,11.43-0.86,16.99
		l-0.86,25.92c-9.03-5.76-19.11-8.64-30.24-8.64c-4.23,0-8.79,0.29-13.68,0.86c-4.9,0.58-9.84,0.86-14.83,0.86
		c-12.29,0-21.31-3.65-27.08-10.95c-5.18-6.91-7.78-15.94-7.78-27.07l0.58-8.93c0.58-7.49,2.21-14.59,4.9-21.31
		c0.19-0.58,0.38-1.01,0.58-1.3c0.19-0.29,0.33-0.53,0.43-0.72c0.09-0.19,0.24-0.29,0.43-0.29c1.92-2.11,2.88-4.13,2.88-6.05
		c0-2.49-1.01-4.75-3.02-6.77c-2.02-2.02-4.37-3.02-7.06-3.02c-2.12,0-4.13,0.86-6.05,2.59c-3.65,3.65-6.24,8.26-7.78,13.83
		c-1.54,5.57-2.64,10.9-3.31,15.99c-0.67,5.09-1.01,10.23-1.01,15.41c0,9.79,1.82,19.3,5.47,28.52
		c6.91,15.17,18.62,24.39,35.14,27.65c3.07,0.58,6.34,0.86,9.79,0.86c4.42,0,9.07-0.24,13.97-0.72c4.9-0.48,9.74-0.72,14.55-0.72
		c7.87,0,14.88,1.44,21.03,4.32c6.14,2.88,10.08,8.83,11.81,17.86c0.96,4.42,3.74,6.62,8.35,6.62c2.49,0,4.8-0.81,6.91-2.45
		c2.11-1.63,3.17-3.89,3.17-6.77c0.19-14.21,0.58-28.42,1.15-42.63l0.58-25.64c0-11.13-1.11-21.89-3.31-32.26
		C452.71,158.65,448.15,148.76,441.23,139.35z"/>
	<path class="st0" d="M655.53,100.18h-173.4c-0.1,0-0.2,0.01-0.3,0.01c-0.09,0-0.18-0.01-0.28-0.01H313.35h-0.29h-25.35
		c-1.92-5.76-5.95-12.1-12.1-19.01c-4.8-4.61-8.07-9.98-9.79-16.13c-0.39-1.92-0.58-3.84-0.58-5.76c0-9.22,5.47-16.8,16.42-22.75
		c2.69-1.34,5.66-2.4,8.93-3.17c6.34-1.53,12.67-2.3,19.01-2.3c11.33,0,22.51,2.02,33.56,6.05c11.04,4.03,21.6,9.07,31.68,15.12
		c10.08,6.05,19.44,12.34,28.08,18.87c1.53,1.15,3.17,1.73,4.9,1.73c2.3,0,4.32-1.05,6.05-3.17c1.73-2.11,2.59-4.51,2.59-7.2
		c0-2.11-0.77-4.13-2.3-6.05c-4.42-4.61-7.88-9.79-10.37-15.55c-1.92-3.26-4.32-4.9-7.2-4.9c-2.5,0-4.9,1.15-7.2,3.46
		c-28.23-17.86-55.01-26.79-80.36-26.79l-7.49,0.29c-8.83,0.58-17.48,2.74-25.92,6.48c-8.45,3.74-15.41,8.93-20.88,15.55
		c-5.47,6.62-8.21,14.74-8.21,24.34l0.29,6.05c1.73,9.6,6.34,18.63,13.83,27.08c4.22,4.23,7.3,8.93,9.22,14.11
		c1.53,12.87,2.4,25.92,2.59,39.17c-2.12-13.06-4.9-25.92-8.35-38.6c-1.15-4.22-3.65-6.43-7.49-6.62
		c-1.35-0.19-4.71-0.29-10.08-0.29h0H223.2c-0.58-27.65-2.79-42.92-6.62-45.8c-2.12-1.34-4.42-2.02-6.91-2.02
		c-2.12,0-3.99,0.63-5.62,1.87c-1.63,1.25-2.45,3.12-2.45,5.62V61c2.11,19.97,3.17,40.04,3.17,60.2l-0.29,25.63l-2.3-15.84
		c-0.77-8.06-2.02-16.03-3.74-23.91c-1.35-4.22-3.94-6.43-7.78-6.62c-1.35-0.19-4.42-0.29-9.22-0.29c-0.13,0-0.26,0.01-0.4,0.02
		c-0.16-0.01-0.31-0.02-0.47-0.02H40.29c-3.07,0-5.33,0.96-6.77,2.88c-1.44,1.92-2.16,4.03-2.16,6.34c0,2.5,0.72,4.71,2.16,6.62
		c1.44,1.92,3.7,2.88,6.77,2.88h23.33c-1.35,21.13-2.02,42.25-2.02,63.37c0,14.6,0.14,29.24,0.43,43.93
		c0.29,14.69,0.43,29.33,0.43,43.92c0,3.07,1.01,5.38,3.02,6.91c2.02,1.54,4.37,2.3,7.06,2.3h1.73c9.02-1.53,18.82-4.27,29.38-8.21
		c10.56-3.93,20.69-8.97,30.39-15.12c9.69-6.14,17.67-13.2,23.91-21.17c6.24-7.97,9.36-16.75,9.36-26.36
		c0-9.02-3.65-18.72-10.95-29.09c-9.41-11.9-20.74-22.08-33.99-30.53c-13.25-8.45-26.79-15.94-40.61-22.47l0.58-7.49h98.22
		c0.25,0,0.48-0.02,0.72-0.03c0.24,0.01,0.47,0.03,0.72,0.03c5.95,30.53,9.69,61.69,11.23,93.47c1.53,31.78,2.3,63.32,2.3,94.62
		c0,2.88,0.96,5.08,2.88,6.62c1.92,1.53,4.03,2.3,6.34,2.3c2.3,0,4.42-0.72,6.34-2.16c1.92-1.44,2.98-3.7,3.17-6.77
		c0-22.47,1.53-53.76,4.61-93.9c3.07-40.13,4.61-71.53,4.61-94.19h23.04c0.23,0,0.44-0.02,0.66-0.03c0.26,0.01,0.51,0.03,0.78,0.03
		c6.91,30.53,11.23,61.74,12.96,93.61c1.73,31.88,2.59,63.37,2.59,94.48c0,2.88,1.01,5.08,3.02,6.62c2.02,1.53,4.18,2.3,6.48,2.3
		s4.42-0.72,6.34-2.16c1.92-1.44,2.88-3.7,2.88-6.77c0.38-25.92,1.82-51.75,4.32-77.48c3.07-33.99,4.61-60.49,4.61-79.5
		c0-10.37-0.39-20.74-1.15-31.11h23.04h0.29h168.21c0.1,0,0.18-0.01,0.28-0.01c0.1,0,0.19,0.01,0.3,0.01h99.95
		c0,2.5-0.19,4.9-0.58,7.2c-12.67,6.15-25.16,13.01-37.45,20.59c-12.29,7.59-23.24,16.56-32.83,26.93
		c-10.56,11.91-15.84,23.91-15.84,36c0,2.5,0.19,5,0.58,7.49c5.95,22.85,26.59,40.52,61.93,53c9.79,4.03,19.87,7.11,30.24,9.22h1.73
		c2.3,0,4.56-0.72,6.77-2.16c2.21-1.44,3.31-3.5,3.31-6.19v-0.86c-1.92-21.89-2.88-43.78-2.88-65.67c0-20.93,0.67-41.86,2.02-62.79
		c8.45,1.15,13.73,9.22,15.84,24.19c0.96,5.38,1.44,10.76,1.44,16.13c0,6.34-0.29,12.67-0.86,19.01l-0.58,9.22
		c0,2.88,1.05,5.09,3.17,6.62c2.11,1.54,4.32,2.3,6.62,2.3c4.8,0,7.68-2.21,8.64-6.62c1.15-7.68,3.74-14.98,7.78-21.89
		c0.77-1.53,1.15-3.07,1.15-4.61c0-2.3-0.82-4.32-2.45-6.05c-1.63-1.73-3.6-2.78-5.9-3.17c-1.15-32.84-12.29-50.79-33.41-53.86
		l0.29-4.03h54.73c3.07,0,5.37-0.96,6.91-2.88c1.54-1.92,2.3-4.13,2.3-6.62c0-2.3-0.77-4.41-2.3-6.34
		C660.9,101.14,658.6,100.18,655.53,100.18z M136.21,184.28c8.45,8.83,12.67,17.28,12.67,25.35c0,1.92-0.29,3.84-0.86,5.76
		c-6.15,15.75-23.72,28.52-52.71,38.31c-4.61,1.73-9.32,3.27-14.11,4.61l-0.29-30.53c-0.39-14.98-0.58-30.05-0.58-45.22l0.58-35.72
		C101.45,156.06,119.89,168.54,136.21,184.28z M580.06,258.31c-14.79-4.22-28.52-10.18-41.19-17.86
		c-16.32-9.79-24.48-20.35-24.48-31.68c0-5.95,2.59-12.39,7.78-19.3c7.29-9.22,16.08-17.18,26.35-23.91
		c10.27-6.72,20.78-12.67,31.54-17.86c-1.15,19.01-1.73,38.02-1.73,57.03C578.34,222.59,578.91,240.45,580.06,258.31z"/>
	<polygon class="st0" points="799.98,69.64 740.2,282.85 760.6,282.85 820.23,69.64 	"/>
	<polygon class="st0" points="820.23,282.85 840.62,282.85 900.25,69.64 880,69.64 	"/>
	<path class="st0" d="M1059.05,262.52c-16.45,0-43.85-13.2-43.58-53.13c0-30.02,16.52-45.85,35.07-45.85
		c10.22,0,20.01,4.07,29.14,12.27c2.85,2.3,4.05,2.9,5.52,2.9c3.25,0,10.51-6.17,10.52-13.15c0-3.24-0.63-5.34-4.66-8.49
		c-4.37-3.74-13.86-7.73-26.7-7.73c-11.34,0-28.67,4.56-44.16,16.5c-19.25,14.62-29.11,33.7-29.11,56.37
		c0,30.89,21.71,60.57,58.47,60.57c17.3,0,36.6-12.66,49.31-29.5l-4.95-6.39C1080.86,259.35,1071.13,262.52,1059.05,262.52z"/>
	<path class="st0" d="M1234.52,249.34v-50.81c0-34.39-16.33-49.19-40.04-49.19c-15.5,0-31.24,10.55-41.59,20.89v-62.15
		c0-11.74,0-24.35,0-35.55c-10.58,4.03-28.03,8.34-43.64,9.79v7.59c19.11,1.78,20.03,5.49,20.03,20.64v138.51
		c0,19.23-3.68,20.64-20.23,22.09v8.17h63.13v-8.17c-17.04-1.75-19.3-3.49-19.3-22.02v-68.22c7.98-9.32,19.26-14.58,29.97-14.58
		c18.82-0.27,28.04,11.55,28.04,35.36v47.44c0,18.81-2.22,20.28-18.69,22.02v8.17h61.14v-8.17
		C1236.8,269.67,1234.52,268.3,1234.52,249.34z"/>
	<path class="st0" d="M1373.77,263.22c-5.15,0-10.03-4-10.03-17.28v-55.25c0-14.96-4.54-24.89-14.76-33.53
		c-6.73-5.22-15.71-7.81-24.52-7.81c-16.4,3.46-33.12,13.98-41.75,20.18c-5.81,4.07-9.54,7.54-9.54,11.64
		c0,6.98,7.34,12.81,12.93,12.81c4.41,0,7.12-2.02,8.59-6.81c2.58-8.37,4.54-14.67,7.73-18.74c2.86-3.46,6.9-6.57,13.42-6.57
		c14.82,0,24.9,11.6,24.9,31.73v6.17c-6.35,5.22-28.03,12.67-45.56,18.74c-15.81,5.51-23.53,14.59-23.53,28.77
		c0,18.4,14.67,35.53,35.38,35.53c8.72,0,22.84-10.59,34.33-18.33c1.44,5.06,3.19,9.1,6.95,12.83c2.93,3.19,9.27,5.51,13.79,5.51
		l24.86-14.52l-2.9-8.17C1380.89,261.81,1377.19,263.22,1373.77,263.22z M1340.74,254.92c-5.69,5.68-15.69,10.03-22.97,10.03
		c-9.05,0-20.55-6.84-20.55-22.16c0-10.61,6.54-16.06,17.37-20.94c6.57-2.9,19.89-8.76,26.15-11.91
		C1340.74,223.47,1340.74,241.38,1340.74,254.92z"/>
	<path class="st0" d="M1452.17,265.81c-7.37,0-16.59-4.22-16.59-27.5v-73.55h30.83c3.47-2.59,4.35-9.08,1.76-11.96h-32.6
		c-0.02-14.29,0.29-30.91,0.85-42.75l-4.29-0.68c-5.75,5.83-14.44,13.42-20.17,19.25v24.18h-13.16l-7.81,8.51l1.19,3.46h19.79v83.61
		c0,23.23,10,34.41,28.66,34.41c2.83,0,7.44-1.13,12.33-3.71l19.16-10.12l-2.61-7.66C1465.42,263.32,1458.96,265.81,1452.17,265.81z
		"/>
	<path class="st0" d="M1562.35,149.34c-14.25,0-26.24,15.53-36.5,30.8c0-9.49,0-22.15,0-31.65c-13.79,6.01-26.94,9.47-41.28,11.76
		v7.3c16.52,2.07,17.67,2.97,17.67,21.7v60.1c0,18.64-1.71,20.08-19.69,21.81v8.17h66.83v-8.17c-22.06-1.76-23.53-3.17-23.53-22.08
		V194.9c6.27-14.47,16.72-23.09,22.67-23.09c5.17,0,8.64,2.98,13,7.29c2.29,2,4.63,2.36,7.57,0.63c5.15-2.85,10.08-9.29,10.08-16.36
		C1579.18,156,1573.01,149.34,1562.35,149.34z"/>
	<path class="st0" d="M1622.74,121.19c8.56,0,15.34-7.32,15.34-15.57c0-9.37-6.78-16.12-15.05-16.12c-8.52,0-15.88,6.74-15.88,16.12
		C1607.15,113.87,1614.5,121.19,1622.74,121.19z"/>
	<path class="st0" d="M1636.17,248.36v-63.32c0-12.08,0-24.16,0-36.26c-12.59,5.15-26.4,8.9-41.57,11.45v7.07
		c17.06,2.81,17.96,3.96,17.96,21.91v59.15c0,19.64-2,21.06-19.99,22.81v8.17h64.17v-8.17
		C1638.13,269.42,1636.17,267.95,1636.17,248.36z"/>
	<path class="st0" d="M1784.62,255.93c-9.42-10.06-38.66-43.67-44.51-51.92c6.17-7.59,18.74-21.87,24.16-27.56
		c12.25-12.82,18.21-15.21,38.24-18.37v-7.86l-59.47,2.58v8.15c13.64,1.19,16.08,3.52,10.18,11.76
		c-4.79,7.12-15.45,20.06-22.11,26.72c-4.34,4.61-9.78,8.15-18.3,10.15V109.02c0-12.33,0-24.13,0-36.48
		c-10.75,4.1-28.13,8.35-43.3,9.79v7.57c17.7,2.64,19.69,3.27,19.69,21.81v137.31c0,18.45-1.44,20.38-20.5,22.14v8.17h64.08v-8.17
		c-18.53-1.76-19.97-2.88-19.97-22.14v-31.9c1.66-0.54,3.9-0.54,5.03-0.52c2.52,0.02,4.25,1.46,8.2,6
		c1.69,1.75,46.32,55.34,48,57.32c6.32-0.31,23.47-0.59,39.44-0.58v-8.17C1802.17,270.52,1798.17,269.57,1784.62,255.93z"/>
</g>
</svg>
