<svg version="1.1" id="Layer_1" xmlns="http://www.w3.org/2000/svg" xmlns:xlink="http://www.w3.org/1999/xlink" x="0px" y="0px"
	 viewBox="0 0 3456.54 1489.01" style="enable-background:new 0 0 3456.54 1489.01;" xml:space="preserve"><g>
	<path d="M1343.53,275.87c3.9-4.87,5.85-10.47,5.85-16.81c0-5.85-1.95-11.21-5.85-16.08c-3.91-4.87-9.75-7.31-17.54-7.31h-59.21
		c-1.46-70.18-7.07-108.92-16.81-116.23c-5.37-3.4-11.22-5.12-17.54-5.12c-5.37,0-10.12,1.59-14.25,4.75
		c-4.15,3.18-6.21,7.93-6.21,14.25v2.92c5.36,50.69,8.04,101.61,8.04,152.78l-0.73,65.06l-5.85-40.21
		c-1.95-20.47-5.12-40.69-9.5-60.67c-3.42-10.71-9.99-16.32-19.74-16.81c-3.41-0.48-11.21-0.73-23.38-0.73c0,0,0,0,0,0H738.27h0
		h-59.94c-0.98-32.64-3.42-65.79-7.31-99.42c-0.98-7.31-4.15-12.79-9.5-16.45c-5.37-3.66-11.22-5.48-17.54-5.48
		c-5.37,0-10.12,1.59-14.25,4.75c-4.15,3.18-6.21,7.93-6.21,14.25v2.92c5.36,48.25,8.04,96.49,8.04,144.74
		c0,24.37-0.49,48.74-1.46,73.1c-5.37-34.6-12.19-68.22-20.47-100.88c-3.42-10.71-9.99-16.32-19.74-16.81l-5.12-0.73h-29.97
		c-4.88,0-9.75,1.71-14.62,5.12v0.73l-2.19,1.46c-10.23,8.77-19.26,18.53-27.05,29.24l1.46-13.89c0-6.33-2.56-11.7-7.68-16.08
		s-10.6-6.58-16.45-6.58h-96.49H220c-7.8,0-13.52,2.44-17.18,7.31c-3.66,4.88-5.48,10.23-5.48,16.08c0,6.34,1.83,11.95,5.48,16.81
		c3.65,4.88,9.38,7.31,17.18,7.31h171.79h70.91c-6.83,72.62-10.23,145.23-10.23,217.84c0,36.55,0.97,72.62,2.92,108.19l0.73,3.66
		l0.73,16.08c-13.16-8.28-24.61-18.75-34.36-31.43c-9.75-12.67-14.62-25.33-14.62-38.01c0-4.39,0.73-8.77,2.19-13.16
		c0-0.48,0.24-0.97,0.73-1.46c0.48-0.97,0.73-2.43,0.73-4.39c4.39-18.51,6.58-37.76,6.58-57.75c0-31.67-5.85-62.5-17.54-92.47
		c-11.7-29.97-30.46-53.48-56.29-70.54c-12.68-7.31-25.1-10.96-37.28-10.96c-30.22,0-54.59,17.06-73.1,51.17
		c-10.73,22.42-18.04,46.05-21.93,70.91c-6.34,0.49-11.82,2.92-16.45,7.31c-4.64,4.39-6.94,9.75-6.94,16.08
		c0,3.91,1.21,7.8,3.66,11.7c9.74,17.54,16.32,36.07,19.74,55.56c0.97,5.85,3.29,10.23,6.94,13.16c3.65,2.92,7.68,4.39,12.06,4.39
		c6.33,0,12.3-2.43,17.91-7.31c5.6-4.87,8.41-11.21,8.41-19.01v-3.66c-1.46-10.71-2.19-21.44-2.19-32.16
		c0-26.8,4.63-52.87,13.89-78.22c1.94-6.82,4.75-13.76,8.41-20.83c3.65-7.06,8.65-12.79,14.99-17.18c4.87-2.92,9.25-4.39,13.16-4.39
		c5.85,0,11.2,1.83,16.08,5.48c4.87,3.65,9.25,7.93,13.16,12.79c24.36,33.15,36.55,69.21,36.55,108.19
		c0,27.78-6.1,54.35-18.27,79.68c-11.22,21.45-26.57,37.9-46.05,49.34c-19.5,11.46-40.46,17.18-62.87,17.18
		c-18.04,0-36.07-3.9-54.09-11.7c-29.24-13.64-53.12-33.63-71.64-59.94c-18.53-26.32-31.19-54.83-38.01-85.53
		c-4.39-18.52-6.58-37.03-6.58-55.56c0-55.06,16.81-106.47,50.44-154.24c2.92-4.39,4.39-8.52,4.39-12.43
		c0-6.33-2.56-11.57-7.68-15.72c-5.12-4.13-11.09-6.21-17.91-6.21c-6.83,0-13.41,3.42-19.74,10.23
		C45.77,293.42,27.01,352.63,27.01,415.5c0,25.84,3.16,51.17,9.5,76.02c10.71,41.92,30.34,79.56,58.85,112.94
		c28.51,33.39,64.2,55.68,107.09,66.89c14.62,3.42,28.75,5.12,42.4,5.12c52.63,0,96.49-21.44,131.58-64.33
		c11.7,19.99,26.8,37.04,45.32,51.17c18.51,14.14,37.03,23.15,55.56,27.05h3.66l8.77-0.73c4.87-0.48,9.01-2.43,12.43-5.85
		c3.4-3.4,5.12-8.04,5.12-13.89v-2.92c-4.88-56.53-7.31-112.81-7.31-168.86c0.97-42.88,6.33-84.54,16.08-125
		c8.77-34.6,24.85-64.57,48.25-89.91h3.65c17.54,77.49,28.51,156.69,32.9,237.58c4.39,80.9,6.58,160.82,6.58,239.77
		c0,7.31,2.56,12.91,7.68,16.81c5.12,3.89,10.6,5.85,16.45,5.85c5.85,0,11.2-1.83,16.08-5.48c4.87-3.65,7.31-9.39,7.31-17.18
		c1.46-77.96,5.36-156.18,11.7-234.65c3.4-40.44,6.33-80.89,8.77-121.35c2.43-40.44,3.65-80.89,3.65-121.35h59.21h0h315.79
		c-3.91,48.25-6.83,96.25-8.77,144.01c-10.73-14.62-21.2-30.45-31.43-47.51c-5.85-7.31-12.43-10.97-19.74-10.97
		c-5.85,0-11.22,2.08-16.08,6.21c-4.88,4.15-7.56,9.87-8.04,17.18c-0.49,25.84-6.34,54.58-17.54,86.26
		c-7.8,23.39-15.84,35.09-24.12,35.09c-4.88-0.48-9.75-5.12-14.62-13.89c-7.31-12.67-13.89-27.53-19.74-44.59
		c-7.8-20.95-13.89-42.4-18.27-64.33c-1.46-5.85-4.39-10.23-8.77-13.16c-4.39-2.92-9.02-4.39-13.89-4.39
		c-5.37,0-10.23,1.46-14.62,4.39c-4.39,2.92-7.31,7.31-8.77,13.16c-8.77,41.43-19.99,82.6-33.63,123.54l-4.39-0.73
		c-5.37,0-10.23,1.71-14.62,5.12c-4.39,3.42-6.58,8.77-6.58,16.08v2.19c0.97,11.7,1.46,23.64,1.46,35.82v14.62
		c0,7.31,2.19,12.68,6.58,16.08c4.39,3.42,9.5,5.12,15.35,5.12c4.87,0,9.74-1.46,14.62-4.39c9.25-5.36,24.85-45.32,46.78-119.88
		c10.23,24.37,22.41,45.08,36.55,62.14c10.23,11.7,22.9,17.54,38.01,17.54c16.56-0.48,30.45-8.04,41.67-22.66
		c16.56-23.39,28.75-51.41,36.55-84.06c11.7,15.11,23.63,29.73,35.82,43.86c0,55.56,2.67,110.87,8.04,165.94
		c0.97,7.8,4.02,13.52,9.14,17.18c5.12,3.65,10.6,5.48,16.45,5.48c5.36,0,10.23-1.58,14.62-4.75c4.39-3.16,6.58-8.16,6.58-14.99
		v-2.92c-4.88-55.06-7.31-109.89-7.31-164.48c0-73.1,3.4-146.2,10.23-219.3h59.21c0.33,0,0.65-0.01,0.98-0.02
		c0.16,0,0.31,0.02,0.48,0.02c15.1,77.49,24.6,156.56,28.51,237.21c3.89,80.66,5.85,160.71,5.85,240.13
		c0,7.31,2.43,12.91,7.31,16.81c4.87,3.89,10.23,5.85,16.08,5.85s11.21-1.83,16.08-5.48c4.87-3.65,7.55-9.39,8.04-17.18
		c0-57.02,3.9-136.44,11.7-238.31c7.79-101.85,11.7-181.53,11.7-239.04h58.48C1333.78,283.18,1339.63,280.75,1343.53,275.87z"/>
	<path d="M2408.59,682.31l-35.82-16.81c-4.39-1.94-8.77-2.92-13.16-2.92c-7.8,0-14.14,3.65-19.01,10.96
		c-1.95,3.91-2.92,8.29-2.92,13.16c0,7.79,3.66,14.37,10.96,19.74c12.18,5.36,24.12,10.96,35.82,16.81
		c3.89,1.94,8.04,2.92,12.43,2.92c8.28,0,15.1-3.91,20.47-11.7c1.94-3.42,2.92-7.31,2.92-11.7
		C2420.28,692.54,2416.38,685.72,2408.59,682.31z"/>
	<path d="M2768.23,235.67h-62.13v-7.31c0-16.08,4.75-37.65,14.25-64.69c9.5-27.05,14.25-48.61,14.25-64.69
		c0-8.77-1.22-17.54-3.66-26.32c-6.83-20.95-19.37-36.06-37.65-45.32c-18.27-9.25-37.9-13.89-58.84-13.89h-7.31
		c-46.78,0-93.93,13.16-141.45,39.47s-80.78,62.39-99.78,108.19c-0.97,2.92-1.46,5.85-1.46,8.77c0,5.85,2.44,10.6,7.31,14.25
		c4.88,3.65,10.23,5.48,16.08,5.48c11.7,0,19.5-5.36,23.39-16.08c15.11-35.57,42.89-63.23,83.33-82.97
		c40.46-19.74,78.71-29.61,114.77-29.61c17.54,0,31.31,2.81,41.3,8.41c9.98,5.61,15.47,15.72,16.45,30.34
		c0,10.23-1.46,20.23-4.39,29.97c-2.92,9.75-6.34,19.26-10.23,28.51l-6.58,18.27c-5.37,15.11-8.04,30.22-8.04,45.32l1.46,18.27
		l-0.73,5.85c3.89,42.89,6.09,77.98,6.58,105.26c-5.37-33.13-12.43-65.79-21.2-97.95c-2.92-10.71-9.26-16.32-19.01-16.81
		c-3.42-0.48-11.7-0.73-24.85-0.73c-0.25,0-0.49,0.03-0.74,0.04c-0.48-0.02-0.96-0.04-1.45-0.04h-359.65h-0.73h-58.48
		c-1.46-70.18-7.07-108.92-16.81-116.23c-5.37-3.4-11.22-5.12-17.54-5.12c-5.37,0-10.12,1.59-14.25,4.75
		c-4.15,3.18-6.21,7.93-6.21,14.25v2.92c5.36,50.69,8.04,101.61,8.04,152.78l-0.73,65.06l-5.85-40.21
		c-1.95-20.47-5.12-40.69-9.5-60.67c-3.42-10.71-9.99-16.32-19.74-16.81c-3.42-0.48-11.22-0.73-23.39-0.73
		c-0.23,0-0.46,0.03-0.69,0.03c-0.49-0.02-0.99-0.03-1.5-0.03h-355.26h-0.74h-55.55l8.04-101.61c0-6.82-2.32-11.94-6.94-15.35
		c-4.64-3.4-9.63-5.12-14.99-5.12c-5.85,0-11.46,1.95-16.81,5.85c-8.77,6.34-15.6,69.21-20.47,188.6
		c-14.62-20.95-32.16-38.01-52.63-51.17c-20.47-13.16-43.13-19.74-67.98-19.74c-25.34,0-51.9,7.31-79.68,21.93
		c-32.66,17.54-48.98,40.21-48.98,67.98c0,8.29,1.94,17.3,5.85,27.05c9.74,23.39,27.29,37.77,52.63,43.13
		c6.33,0.98,13.64,1.71,21.93,2.19c8.28,0.49,16.56,1.46,24.85,2.92c8.28,1.46,15.23,4.51,20.83,9.14
		c5.6,4.64,8.41,11.82,8.41,21.56l-57.02,67.25c-3.91,5.37-5.85,10.73-5.85,16.08c0,6.34,2.43,12.19,7.31,17.54
		c4.87,5.37,10.47,8.04,16.81,8.04c5.36,0,10.47-2.67,15.35-8.04c41.91-49.71,84.3-98.69,127.19-146.93
		c3.89,11.7,6.58,23.64,8.04,35.82v24.12c0,74.08,3.16,147.42,9.5,220.03c0.97,7.8,4.02,13.52,9.14,17.18
		c5.12,3.65,10.84,5.48,17.18,5.48c5.36,0,10.23-1.58,14.62-4.75c4.39-3.16,6.58-8.16,6.58-14.99v-2.92
		c-6.34-70.66-9.5-142.05-9.5-214.18c0-70.18,1.21-126.7,3.66-169.59h58.47h0.74h58.47c-3.42,53.61-5.12,107.22-5.12,160.82
		c0,37.04,0.37,74.2,1.1,111.48c0.73,37.28,1.1,74.45,1.1,111.48c0,7.8,2.56,13.65,7.68,17.54c5.12,3.91,11.08,5.85,17.91,5.85h4.39
		c22.9-3.89,47.75-10.84,74.56-20.83c26.8-9.98,52.51-22.78,77.12-38.38c24.6-15.59,44.83-33.5,60.67-53.73
		c15.83-20.22,23.76-42.51,23.76-66.89c0-22.9-9.26-47.51-27.78-73.83c-23.88-30.21-52.63-56.04-86.26-77.49
		c-33.63-21.44-67.98-40.44-103.07-57.02l1.46-19.01h249.27c0.7,0,1.37-0.03,2.04-0.07c0.54,0.03,1.06,0.07,1.62,0.07
		c15.1,77.49,24.6,156.56,28.51,237.21c3.9,80.66,5.85,160.71,5.85,240.13c0,7.31,2.43,12.91,7.31,16.81
		c4.87,3.89,10.23,5.85,16.08,5.85s11.21-1.83,16.08-5.48c4.87-3.65,7.55-9.39,8.04-17.18c0-57.02,3.89-136.44,11.7-238.31
		c7.79-101.85,11.7-181.53,11.7-239.04h57.75h0.73h252.92c0,6.34-0.49,12.43-1.46,18.27c-32.16,15.6-63.85,33.02-95.03,52.27
		c-31.19,19.26-58.97,42.03-83.33,68.35c-26.81,30.22-40.21,60.67-40.21,91.37c0,6.34,0.48,12.68,1.46,19.01
		c15.1,58,67.49,102.83,157.17,134.5c24.85,10.23,50.44,18.04,76.75,23.39h4.39c5.85,0,11.57-1.83,17.18-5.48
		c5.6-3.66,8.41-8.89,8.41-15.72v-2.19c-4.88-55.06-7.31-109.89-7.31-164.48c0-58.96,2.19-117.93,6.58-176.9l2.92-42.4h59.21
		c0.82,0,1.62-0.04,2.4-0.1c0.88,0.06,1.78,0.1,2.71,0.1c17.54,77.49,28.51,156.69,32.9,237.58c4.39,80.9,6.58,160.82,6.58,239.77
		c0,7.31,2.56,12.91,7.67,16.81c5.12,3.89,10.6,5.85,16.45,5.85c5.85,0,11.2-1.83,16.08-5.48c4.87-3.65,7.31-9.39,7.31-17.18
		c0.97-64.82,4.63-129.63,10.96-194.45c7.31-85.77,10.96-152.53,10.96-200.29c0-27.78-0.98-55.3-2.92-82.6h59.21
		c7.31,0,12.91-2.43,16.81-7.31c3.89-4.87,5.85-10.47,5.85-16.81c0-5.85-1.95-11.21-5.85-16.08
		C2781.14,238.11,2775.55,235.67,2768.23,235.67z M1529.94,391.37c-18.04-22.9-44.59-35.57-79.68-38.01l-5.12-0.73
		c-8.77,0-17.3-1.34-25.58-4.02c-8.29-2.67-12.68-9.38-13.16-20.1c0-9.74,4.26-17.18,12.79-22.3c8.52-5.12,16.93-9.14,25.22-12.06
		l3.66-1.46c13.64-5.36,26.56-8.04,38.74-8.04c32.64,0,61.64,19.01,86.99,57.02L1529.94,391.37z M1958.29,449.12
		c21.44,22.42,32.16,43.86,32.16,64.33c0,4.88-0.73,9.75-2.19,14.62c-15.6,39.97-60.19,72.37-133.77,97.22
		c-11.7,4.39-23.64,8.29-35.82,11.7l-0.73-77.49c-0.98-38.01-1.46-76.26-1.46-114.77l1.46-90.64
		C1870.08,377.48,1916.87,409.17,1958.29,449.12z M2486.07,636.99c-37.53-10.71-72.37-25.83-104.53-45.32
		c-41.43-24.85-62.14-51.65-62.14-80.41c0-15.1,6.58-31.43,19.74-48.98c18.51-23.39,40.81-43.61,66.89-60.67
		c26.06-17.05,52.75-32.16,80.04-45.32c-2.92,48.25-4.39,96.49-4.39,144.74C2481.69,546.34,2483.15,591.67,2486.07,636.99z"/>
	<polygon points="3082.06,128.03 2800.21,754.99 2837.39,754.99 3119.25,128.03 	"/>
	<polygon points="3365.06,128.03 3083.2,754.99 3120.39,754.99 3402.25,128.03 	"/>
	<path d="M155.92,930.24L-2.16,1329.35h64.57l38.13-96.86h189.81l38.13,96.86h64.57L234.97,930.24H155.92z M121.69,1177.67
		l74.03-188.7l73.48,188.7H121.69z"/>
	<rect x="435.6" y="913.26" width="59.84" height="416.09"/>
	<path d="M801.55,1086.1c-23.94-33.96-58.36-50.93-103.26-50.93c-40.63,0-74.55,14.38-101.73,43.14
		c-27.18,28.76-40.77,64.57-40.77,107.43c0,43.24,13.59,79.23,40.77,107.99c27.18,28.76,61.09,43.14,101.73,43.14
		c44.9,0,79.32-16.98,103.26-50.93v43.42h59.28v-286.67h-59.28V1086.1z M775.25,1255.46c-18.28,18.46-40.68,27.69-67.21,27.69
		c-27.28,0-49.68-9.23-67.21-27.69c-17.53-18.46-26.3-41.75-26.3-69.86s8.77-51.25,26.3-69.44c17.53-18.18,39.94-27.28,67.21-27.28
		c26.53,0,48.94,9.18,67.21,27.55c18.27,18.37,27.41,41.47,27.41,69.3C802.66,1213.76,793.52,1237,775.25,1255.46z"/>
	<path d="M1100.98,1035.17c-44.53,0-78.76,16.98-102.7,50.93v-43.42h-59.84v406.35h59.84v-163.1
		c23.94,33.96,58.17,50.93,102.7,50.93c40.63,0,74.63-14.38,102-43.14c27.37-28.76,41.05-64.75,41.05-107.99
		c0-43.04-13.69-78.9-41.05-107.57C1175.61,1049.5,1141.61,1035.17,1100.98,1035.17z M1158.45,1255.46
		c-17.53,18.46-39.94,27.69-67.21,27.69c-26.54,0-48.94-9.18-67.21-27.55c-18.28-18.37-27.41-41.65-27.41-69.86
		c0-27.83,9.14-50.93,27.41-69.3c18.27-18.37,40.68-27.55,67.21-27.55c27.46,0,49.91,9.09,67.35,27.28
		c17.44,18.19,26.16,41.33,26.16,69.44S1175.99,1237,1158.45,1255.46z"/>
	<path d="M1493.37,980.62c31.54,0,58.91,7.79,82.1,23.38c23.19,15.59,39.15,35.16,47.87,58.73l59.84-15.03
		c-11.32-34.88-33.82-64.38-67.49-88.51c-33.68-24.12-74.45-36.18-122.32-36.18c-59.19,0-108.54,19.67-148.07,59
		c-39.52,39.34-59.28,88.46-59.28,147.37c0,58.91,19.85,108.22,59.56,147.93c39.7,39.71,89.15,59.56,148.34,59.56
		c47.5,0,87.99-12.01,121.49-36.04c33.49-24.03,55.89-53.3,67.21-87.81l-59.84-15.31c-8.35,23.57-24.12,42.96-47.31,58.17
		c-23.2,15.22-50.56,22.82-82.1,22.82c-42.86,0-77.7-14.56-104.51-43.7c-26.81-29.13-40.22-64.57-40.22-106.32
		c0-41.37,13.4-76.4,40.22-105.07C1415.67,994.95,1450.51,980.62,1493.37,980.62z"/>
	<path d="M1903.85,1035.17c-42.12,0-75.05,16.7-98.8,50.1v-172h-59.84v416.09h59.84v-142.5c0-28.95,7.51-52.14,22.54-69.58
		c15.03-17.44,35.07-26.16,60.12-26.16c23.19,0,40.77,7.15,52.74,21.43c11.97,14.29,17.95,34.14,17.95,59.56v157.25h59.28v-168.11
		c0-39.15-9.84-69.95-29.5-92.4C1968.51,1046.39,1940.41,1035.17,1903.85,1035.17z"/>
	<path d="M2321.02,1086.1c-23.94-33.96-58.36-50.93-103.26-50.93c-40.63,0-74.55,14.38-101.73,43.14
		c-27.18,28.76-40.77,64.57-40.77,107.43c0,43.24,13.59,79.23,40.77,107.99c27.18,28.76,61.09,43.14,101.73,43.14
		c44.9,0,79.32-16.98,103.26-50.93v43.42h59.28v-286.67h-59.28V1086.1z M2294.71,1255.46c-18.28,18.46-40.68,27.69-67.21,27.69
		c-27.28,0-49.68-9.23-67.21-27.69c-17.54-18.46-26.3-41.75-26.3-69.86s8.77-51.25,26.3-69.44c17.53-18.18,39.94-27.28,67.21-27.28
		c26.53,0,48.94,9.18,67.21,27.55c18.27,18.37,27.42,41.47,27.42,69.3C2322.13,1213.76,2312.99,1237,2294.71,1255.46z"/>
	<path d="M2556.3,1048.11c-16.98,9-29.83,22.4-38.55,40.22v-45.64h-59.84v286.67h59.84v-129.42c0-40.63,8.49-69.44,25.47-86.42
		c16.98-16.98,41.23-23.14,72.78-18.51v-55.66C2593.17,1036.19,2573.27,1039.11,2556.3,1048.11z"/>
	<path d="M2698.34,922.45c-10.58,0-19.48,3.62-26.72,10.85s-10.85,15.77-10.85,25.61c0,10.58,3.62,19.39,10.85,26.44
		c7.24,7.05,16.14,10.58,26.72,10.58s19.48-3.52,26.72-10.58c7.24-7.05,10.85-15.86,10.85-26.44c0-9.83-3.62-18.37-10.85-25.61
		S2708.91,922.45,2698.34,922.45z"/>
	<rect x="2668" y="1042.68" width="59.28" height="286.67"/></g>
</svg>